<svg width="24" height="24" viewBox="0 0 24 24" fill="none" xmlns="http://www.w3.org/2000/svg">
<path d="M21.3896 19.5478H0.874409C0.482042 19.5478 0.1395 19.2925 0.0336233 18.9125C-0.0722534 18.5326 0.0772196 18.1403 0.407306 17.9285L3.46527 16.004V6.45024C3.46527 5.54094 4.20641 4.7998 5.12193 4.7998H21.3896C22.2989 4.7998 23.04 5.54094 23.04 6.45024V17.8974C23.04 18.8067 22.2989 19.5478 21.3896 19.5478ZM2.15738 18.3022H21.3896C21.6138 18.3022 21.7944 18.1216 21.7944 17.8974V6.45024C21.7944 6.22603 21.6138 6.04541 21.3896 6.04541H5.12193C4.89772 6.04541 4.71088 6.22603 4.71088 6.45024V16.3528C4.71088 16.5646 4.59878 16.7639 4.41816 16.8822L2.15738 18.3022Z" fill="#BCBCBC"/>
<path d="M11.2376 9.68868L11.6736 8.91018C10.839 8.91018 10.0045 9.65754 10.0045 10.4049C10.0045 10.8658 10.3782 11.2395 10.839 11.2395C11.2999 11.2395 11.6736 10.8658 11.6736 10.4049C11.6736 10.0935 11.493 9.83193 11.2376 9.68868Z" fill="#146DF1"/>
<path d="M7.59424 10.4049C7.59424 10.8658 7.96792 11.2394 8.4288 11.2394C8.88967 11.2394 9.26335 10.8658 9.26335 10.4049C9.26335 10.0935 9.08274 9.83191 8.82739 9.68866L9.26335 8.91016C8.4288 8.91016 7.59424 9.65752 7.59424 10.4049Z" fill="#146DF1"/>
<path d="M17.3225 13.3757H8.24821C7.90567 13.3757 7.62541 13.0954 7.62541 12.7529C7.62541 12.4104 7.90567 12.1301 8.24821 12.1301H17.3225C17.665 12.1301 17.9453 12.4104 17.9453 12.7529C17.9453 13.0954 17.665 13.3757 17.3225 13.3757Z" fill="#146DF1"/>
<path d="M12.7822 15.4994H8.24198C7.89944 15.4994 7.61917 15.2192 7.61917 14.8766C7.61917 14.5341 7.89944 14.2538 8.24198 14.2538H12.7822C13.1248 14.2538 13.405 14.5341 13.405 14.8766C13.405 15.2192 13.1248 15.4994 12.7822 15.4994Z" fill="#146DF1"/>
</svg>
