<svg width="25" height="25" viewBox="0 0 25 25" fill="none" xmlns="http://www.w3.org/2000/svg">
<path d="M12.5 25C19.4036 25 25 19.4036 25 12.5C25 5.59644 19.4036 0 12.5 0C5.59644 0 0 5.59644 0 12.5C0 19.4036 5.59644 25 12.5 25Z" fill="#E0E0E0"/>
<path d="M21.4572 14.2643C21.393 13.9786 21.3644 13.6928 21.2715 13.4214C20.893 12.3071 20.1572 11.4857 19.1572 10.9C17.8501 10.1286 16.4358 9.89284 14.9429 10.1357C13.6072 10.3571 12.4572 10.9357 11.543 11.9643C10.3072 13.3571 10.1287 15.3143 11.143 16.8786C12.1501 18.4286 13.6572 19.1428 15.443 19.3286C16.293 19.4214 17.1215 19.2857 17.943 19.0714C18.0144 19.05 18.1144 19.05 18.1787 19.0857C18.5858 19.2857 18.9858 19.5 19.3858 19.7143C19.5358 19.7928 19.6858 19.8714 19.8644 19.9714C19.8501 19.9143 19.8429 19.8857 19.8358 19.8643C19.6929 19.4143 19.5501 18.9643 19.4001 18.5214C19.3715 18.4357 19.3715 18.3786 19.4572 18.3214C19.5715 18.25 19.6715 18.1571 19.7787 18.0714C20.5287 17.4643 21.0787 16.7143 21.3358 15.7786C21.4001 15.5357 21.4358 15.2857 21.4858 15.0428V14.3714C21.4858 14.3714 21.4644 14.3071 21.4572 14.2786V14.2643ZM14.3287 13.9286C13.9215 13.9286 13.593 13.6 13.593 13.1928C13.593 12.7857 13.9215 12.4571 14.3287 12.4571C14.7358 12.4571 15.0644 12.7857 15.0644 13.1928C15.0644 13.6 14.7358 13.9286 14.3287 13.9286ZM17.9144 13.9286C17.5072 13.9286 17.1787 13.6 17.1787 13.1928C17.1787 12.7857 17.5072 12.4571 17.9144 12.4571C18.3215 12.4571 18.6501 12.7857 18.6501 13.1928C18.6501 13.6 18.3215 13.9286 17.9144 13.9286Z" fill="white"/>
<path d="M10.2501 13.7357C10.5287 12.5143 11.2358 11.5786 12.2429 10.8643C13.4429 10.0071 14.8001 9.67142 16.2644 9.69999C16.3572 9.69999 16.4501 9.69999 16.543 9.69999C16.543 9.67856 16.543 9.66427 16.543 9.64999C16.5144 9.52856 16.4858 9.40713 16.4501 9.2857C15.9501 7.69999 14.893 6.57856 13.443 5.84284C11.6644 4.94284 9.79296 4.81427 7.88582 5.3857C6.38582 5.8357 5.15009 6.67856 4.30009 8.01427C3.65723 9.02142 3.40009 10.1286 3.5858 11.3214C3.76437 12.4786 4.30723 13.4428 5.14294 14.25C5.44294 14.5357 5.77152 14.7928 6.09295 15.0643C5.89295 15.6643 5.68581 16.2928 5.46438 16.95C5.56438 16.9 5.62151 16.8714 5.67866 16.8357C6.2858 16.5143 6.9001 16.1857 7.50725 15.8571C7.61439 15.8 7.70723 15.7857 7.82151 15.8214C8.54294 16.0428 9.28581 16.15 10.043 16.1643C10.1501 16.1643 10.2644 16.1643 10.3929 16.1643C10.3715 16.0786 10.3501 16.0214 10.3358 15.9643C10.1144 15.2214 10.0858 14.4714 10.2572 13.7214L10.2501 13.7357ZM12.3287 7.7357C12.8358 7.7357 13.2501 8.14999 13.2501 8.65713C13.2501 9.16427 12.8358 9.57856 12.3287 9.57856C11.8215 9.57856 11.4072 9.16427 11.4072 8.65713C11.4072 8.14999 11.8215 7.7357 12.3287 7.7357ZM7.82866 9.5857C7.32152 9.5857 6.90723 9.17142 6.90723 8.66427C6.90723 8.15713 7.32152 7.74284 7.82866 7.74284C8.3358 7.74284 8.7501 8.15713 8.7501 8.66427C8.7501 9.17142 8.3358 9.5857 7.82866 9.5857Z" fill="white"/>
</svg>
