<svg width="19" height="19" viewBox="0 0 19 19" fill="none" xmlns="http://www.w3.org/2000/svg">
<path d="M3.36 5.48C3.01 5.48 2.73 5.76 2.73 6.11V9.24C2.73 9.59 3.01 9.87 3.36 9.87H5.24C5.59 9.87 5.87 9.59 5.87 9.24C5.87 8.89 5.59 8.61 5.24 8.61H3.99V6.11C3.99 5.76 3.71 5.48 3.36 5.48Z" fill="currentColor"/>
<path d="M6.49 6.1V9.23C6.49 9.58 6.77 9.86 7.12 9.86C7.47 9.86 7.75 9.58 7.75 9.23V6.1C7.75 5.75 7.47 5.47 7.12 5.47C6.77 5.47 6.49 5.75 6.49 6.1Z" fill="currentColor"/>
<path d="M10.88 6.1V7.45L9.49 5.72C9.32 5.51 9.05 5.43 8.79 5.52C8.54 5.61 8.37 5.84 8.37 6.11V9.24C8.37 9.59 8.65 9.87 9 9.87C9.35 9.87 9.63 9.59 9.63 9.24V7.89L11.02 9.63C11.14 9.78 11.32 9.86 11.51 9.86C11.58 9.86 11.65 9.85 11.72 9.82C11.97 9.73 12.14 9.5 12.14 9.23V6.1C12.14 5.75 11.86 5.47 11.51 5.47C11.16 5.47 10.88 5.75 10.88 6.1Z" fill="currentColor"/>
<path d="M15.26 6.73C15.61 6.73 15.89 6.45 15.89 6.1C15.89 5.75 15.61 5.47 15.26 5.47H13.38C13.03 5.47 12.75 5.75 12.75 6.1V9.23C12.75 9.58 13.03 9.86 13.38 9.86H15.26C15.61 9.86 15.89 9.58 15.89 9.23C15.89 8.88 15.61 8.6 15.26 8.6H14.01V8.29H15.26C15.61 8.29 15.89 8.01 15.89 7.66C15.89 7.31 15.61 7.03 15.26 7.03H14.01V6.72H15.26V6.73Z" fill="currentColor"/>
<path d="M7.22 18.01L7.66 16.55C7.92 15.69 7.99 14.64 7.82 14.43L7.03 14.34C2.63 13.81 0 11.25 0 7.49C0 3.36 4.01 0 8.94 0C13.87 0 18.22 3.43 18.22 7.49C18.22 9.1 17.78 10.51 16.86 11.81C14.47 15.2 8.88 17.37 8.64 17.46L7.22 18.01ZM8.94 1.5C4.84 1.5 1.5 4.19 1.5 7.49C1.5 10.46 3.58 12.41 7.21 12.85L8.1 12.97C8.56 13.06 8.89 13.3 9.11 13.67C9.41 14.17 9.44 14.87 9.38 15.51C11.11 14.7 14.16 13.05 15.64 10.95C16.37 9.91 16.72 8.78 16.72 7.5C16.72 4.25 13.16 1.51 8.94 1.51V1.5Z" fill="currentColor"/>
</svg>
