<svg xmlns="http://www.w3.org/2000/svg" width="20" height="20" viewBox="0 0 20 20" fill="none">
    <path d="M2.22 20C1.61 20 1.09 19.78 0.65 19.35C0.22 18.91 0 18.39 0 17.78V2.22C0 1.61 0.22 1.09 0.65 0.65C1.09 0.22 1.61 0 2.22 0H6.89C8.89 0 13.11 0 13.11 0H17.78C18.39 0 18.91 0.22 19.35 0.65C19.78 1.09 20 1.61 20 2.22V17.78C20 18.39 19.78 18.91 19.35 19.35C18.91 19.78 18.39 20 17.78 20H2.22ZM4.44 15.56H12.22V13.33H4.44V15.56ZM4.44 11.11H15.56V8.89H4.44V11.11ZM4.44 6.67H15.56V4.44H4.44V6.67Z" fill="currentColor"/>
</svg>
